<svg xmlns="http://www.w3.org/2000/svg" class="injected-svg" data-src="https://preview.pixlr.com/images/svg/100/1/ea760f5c7bda79519106f7d6c93fc29496f0b52bc3ab0c7fe33aa606eada6768.svg" xmlns:xlink="http://www.w3.org/1999/xlink" id="svg-edited-version" viewBox="0 0 793.707 793.707">
    <path d="M358.187 549.263V445.777c0-5.665-4.592-10.257-10.258-10.257H244.444c-5.665 0-10.257-4.592-10.257-10.257v-56.819c0-5.665 4.592-10.257 10.257-10.257h103.485c5.666 0 10.258-4.592 10.258-10.258V244.444c0-5.665 4.592-10.257 10.257-10.257h56.819c5.665 0 10.257 4.592 10.257 10.257v103.485c0 5.666 4.592 10.258 10.257 10.258h103.486c5.665 0 10.257 4.592 10.257 10.257v56.819c0 5.665-4.592 10.257-10.257 10.257H445.777c-5.665 0-10.257 4.592-10.257 10.257v103.486c0 5.665-4.592 10.257-10.257 10.257h-56.819c-5.665 0-10.257-4.592-10.257-10.257zm265.438-152.41c0-125.242-101.529-226.772-226.772-226.772-125.242 0-226.772 101.53-226.772 226.772 0 125.243 101.53 226.772 226.772 226.772 125.243 0 226.772-101.529 226.772-226.772" fill="#50be37" originalFill="#50be37"/>
</svg>